{"title":"Yogi.Bear.2010.TS.XviD-DST","uid":6174148,"size":752362982,"categoryP":"video","categoryS":"movies","magnet":"?xt=urn:btih:f8eeb999821ffcc395e4b1fddf1d90d6cd3a4484&amp;dn=Yogi.Bear.2010.TS.XviD-DST&amp;tr=udp%3A%2F%2Ftracker.openbittorrent.com%3A80&amp;tr=udp%3A%2F%2Fopen.demonii.com%3A1337&amp;tr=udp%3A%2F%2Ftracker.coppersurfer.tk%3A6969&amp;tr=udp%3A%2F%2Fexodus.desync.com%3A6969","seeders":0,"leechers":0,"uploader":"sceneline","files":55,"time":1297703435,"description":"- &lt;a href=&quot;\nhttp://www.torrentkit.com&quot; rel=&quot;nofollow&quot; target=&quot;_NEW&quot;&gt;\nhttp://www.torrentkit.com&lt;/a&gt;  \n\nwho care what we share! support us by seeding back,\nand don't forget to visit www.torrentkit.com\n-Yogi Bear 2010\n\n\nVideo Codec                      : XVID\nAudio Codec                      : MP3\nAudio Bitrate                    : 122 VBR\nResolution                       : 640 x 352\n\niMDB   : http://www.imdb.com/title/tt1302067/\nRating : 3,7/10   1.920 Votes\n\n\nVideo\nID                               : 0\nFormat                           : MPEG-4 Visual\nFormat profile                   : Advanced Simple@L5\nFormat settings, BVOP            : Yes\nFormat settings, QPel            : No\nFormat settings, GMC             : No warppoints\nFormat settings, Matrix          : Default (H.263)\nCodec ID                         : XVID\nCodec ID/Hint                    : XviD\nDuration                         : 1h 12mn\nBit rate                         : 1 212 Kbps\nWidth                            : 640 pixels\nHeight                           : 352 pixels\nDisplay aspect ratio             : 16:9\nFrame rate                       : 25.000 fps\nColor space                      : YUV\nChroma subsampling               : 4:2:0\nBit depth                        : 8 bits\nScan type                        : Progressive\nCompression mode                 : Lossy\nBits/(Pixel*Frame)               : 0.215\nStream size                      : 632 MiB (90%)\nWriting library                  : XviD 61\n\nAudio\nID                               : 1\nFormat                           : MPEG Audio\nFormat version                   : Version 1\nFormat profile                   : Layer 3\nMode                             : Joint stereo\nMode extension                   : MS Stereo\nCodec ID                         : 55\nCodec ID/Hint                    : MP3\nDuration                         : 1h 12mn\nBit rate mode                    : Variable\nBit rate                         : 121 Kbps\nChannel(s)                       : 2 channels\nSampling rate                    : 44.1 KHz\nCompression mode                 : Lossy\nStream size                      : 63.3 MiB (9%)\nAlignment                        : Aligned on interleaves\nInterleave, duration             : 26 ms (0.65 video frame)","torrent":{"xt":"urn:btih:f8eeb999821ffcc395e4b1fddf1d90d6cd3a4484","amp;dn":"Yogi.Bear.2010.TS.XviD-DST","amp;tr":["udp%3A%2F%2Ftracker.openbittorrent.com%3A80","udp%3A%2F%2Fopen.demonii.com%3A1337","udp%3A%2F%2Ftracker.coppersurfer.tk%3A6969","udp%3A%2F%2Fexodus.desync.com%3A6969"],"infoHash":"f8eeb999821ffcc395e4b1fddf1d90d6cd3a4484","infoHashBuffer":{"type":"Buffer","data":[248,238,185,153,130,31,252,195,149,228,177,253,223,29,144,214,205,58,68,132]},"announce":[],"urlList":[]}}